#!OML:ASF C:\Vicon Data\Big\jianyuan-13\jianyuan\Session 1\Capture.male.ASF
:FULLY-SPECIFIED
:DEGREES
42
root -8.557237 17.053070 -20.617121 6.499202 10.262850 0.916436
lowerback -8.448059 0.385476 0.156995 
upperback 3.922288 0.336884 1.225885 
thorax 8.904323 0.106419 1.263239 
lowerneck 0.228291 -2.585622 4.805393 
upperneck 11.613887 -3.901328 -3.349125 
head 3.574977 -2.098229 -2.079621 
rclavicle 0.000000 0.000000 
rhumerus -36.446699 -19.303647 -78.903448 
rradius 33.643536 
rwrist 28.046788 
rhand -18.771784 -17.975060 
rfingers 0.000000 
rthumb 7.525473 -47.821159 
lclavicle 0.000000 0.000000 
lhumerus -36.817783 24.211579 78.415287 
lradius 31.920802 
lwrist -41.181713 
lhand -19.896737 0.989949 
lfingers 0.000000 
lthumb 6.439508 30.872071 
rfemur -33.813284 5.688852 19.809694 
rtibia 36.058471 
rfoot -9.625337 -4.398711 
rtoes -26.535462 
lfemur -27.663517 7.022103 -15.867373 
ltibia 80.456923 
lfoot -2.310282 4.665423 
ltoes -31.628289 
43
root -8.584013 17.076359 -20.519417 6.284594 10.263138 1.016224
lowerback -8.145052 0.501917 0.068871 
upperback 3.942988 0.513684 1.127746 
thorax 8.745135 0.191162 1.232979 
lowerneck 0.221004 -2.603096 4.734394 
upperneck 11.689365 -3.927509 -3.344558 
head 3.602651 -2.115045 -2.068392 
rclavicle 0.000000 0.000000 
rhumerus -35.817567 -18.831026 -79.510077 
rradius 33.820393 
rwrist 28.107295 
rhand -18.668005 -18.019452 
rfingers 0.000000 
rthumb 7.625602 -47.861992 
lclavicle 0.000000 0.000000 
lhumerus -36.849181 24.217727 78.355560 
lradius 31.974896 
lwrist -41.553504 
lhand -19.725939 0.854755 
lfingers 0.000000 
lthumb 6.604378 30.731720 
rfemur -33.035372 5.687289 19.935971 
rtibia 35.868759 
rfoot -9.947684 -4.338779 
rtoes -26.074038 
lfemur -29.524696 7.094976 -16.029755 
ltibia 81.934605 
lfoot -1.896273 3.565535 
ltoes -34.555864 
44
root -8.607876 17.097424 -20.420507 6.036476 10.298976 1.040713
lowerback -7.845492 0.641285 0.083343 
upperback 3.961860 0.706056 1.046622 
thorax 8.586956 0.288599 1.164110 
lowerneck 0.247027 -2.659402 4.567187 
upperneck 11.702209 -4.001816 -3.293595 
head 3.601699 -2.156662 -2.022661 
rclavicle 0.000000 0.000000 
rhumerus -35.217471 -18.462332 -80.024596 
rradius 34.018321 
rwrist 28.216272 
rhand -18.552581 -17.965451 
rfingers 0.000000 
rthumb 7.737057 -47.803927 
lclavicle 0.000000 0.000000 
lhumerus -36.830188 24.032642 78.453840 
lradius 31.991651 
lwrist -41.373253 
lhand -19.813804 0.960048 
lfingers 0.000000 
lthumb 6.519574 30.839694 
rfemur -32.235420 5.591098 20.153527 
rtibia 35.694880 
rfoot -10.326147 -4.212765 
rtoes -26.277952 
lfemur -31.347611 7.009727 -16.094060 
ltibia 83.371602 
lfoot -1.904819 2.128175 
ltoes -35.191949 
45
root -8.629370 17.116801 -20.323202 5.873605 10.284272 1.032347
lowerback -7.667928 0.806298 0.117441 
upperback 3.963372 0.929568 0.983378 
thorax 8.481893 0.402031 1.108406 
lowerneck 0.197661 -2.710311 4.609353 
upperneck 11.769774 -4.062624 -3.418346 
head 3.629424 -2.189942 -2.076866 
rclavicle 0.000000 0.000000 
rhumerus -34.606505 -17.829718 -80.660347 
rradius 34.434088 
rwrist 27.655161 
rhand -18.592798 -18.115070 
rfingers 0.000000 
rthumb 7.698176 -47.954963 
lclavicle 0.000000 0.000000 
lhumerus -36.825448 23.889242 78.487354 
lradius 31.954144 
lwrist -41.627144 
lhand -19.891566 0.793801 
lfingers 0.000000 
lthumb 6.444501 30.675781 
rfemur -31.552116 5.415119 20.400876 
rtibia 35.522955 
rfoot -10.676606 -3.959510 
rtoes -26.436737 
lfemur -33.290469 7.021068 -16.160876 
ltibia 84.779130 
lfoot -2.085445 0.439075 
ltoes -36.404583 
